# xmcd CD database file
# Copyright (C) 1995-1998 Ti Kan
#
# Track frame offsets:
#	150
#	8903
#	16532
#	24549
#	35111
#	41049
#	50889
#	57500
#	71363
#	82641
#	94644
#	105307
#	110303
#	118419
#	123027
#	126240
#	130932
#	134507
#	141762
#	146354
#	148856
#	153503
#	162268
#	169947
#	177963
#	188425
#	194368
#	204309
#	210848
#	224570
#	235962
#	247857
#	258536
#	263516
#
# Disc length: 3619 seconds
#
# Revision: 1
# Processed by: cddbd v1.4PL0 Copyright (c) Steve Scherf et al.
# Submitted via: CDex 1.30Release
#
DISCID=e00e2122
DTITLE=Various Christian - Sun Creek Junction
DYEAR=2001
DGENRE=Country
TTITLE0=You Gotta Start Up
TTITLE1=How big can a little town be
TTITLE2=Doin what GOD says to do
TTITLE3=Call to me
TTITLE4=Good news squaredance
TTITLE5=Spread the good news
TTITLE6=Everyone who believes
TTITLE7=3000 souls
TTITLE8=On the road to Damascus
TTITLE9=Christ accepts us all
TTITLE10=The churchs' prayer
TTITLE11=The Lord will hear
TTITLE12=The Pony Express
TTITLE13=GOD loved us
TTITLE14=What can I do
TTITLE15=Jesus loves you
TTITLE16=I can talk to Jesus
TTITLE17=Come let me tell
TTITLE18=When we all work together
TTITLE19=Fiddle Music (Sound Effect)
TTITLE20=Promotional Radio Spot
TTITLE21=You gotta start up (Instrumental)
TTITLE22=How big can a little town be (Instrumental)
TTITLE23=Doin what GOD says to do (Instrumental)
TTITLE24=Call to me (Instrumental)
TTITLE25=Good news squaredance (Instrumental)
TTITLE26=Spread the good news (Instrumental)
TTITLE27=Everyone who believes (Instrumental)
TTITLE28=3000 souls (Instrumental)
TTITLE29=On the road to Damascus (Instrumental)
TTITLE30=Christ accepts us all (Instrumental)
TTITLE31=The churchs' prayer (Instrumental)
TTITLE32=The Lord will hear (Instrumental)
TTITLE33=The Pony Express (Instrumental)
EXTD=YEAR: 2001 ID3G:   2
EXTT0=
EXTT1=
EXTT2=
EXTT3=
EXTT4=
EXTT5=
EXTT6=
EXTT7=
EXTT8=
EXTT9=
EXTT10=
EXTT11=
EXTT12=
EXTT13=
EXTT14=
EXTT15=
EXTT16=
EXTT17=
EXTT18=
EXTT19=
EXTT20=
EXTT21=
EXTT22=
EXTT23=
EXTT24=
EXTT25=
EXTT26=
EXTT27=
EXTT28=
EXTT29=
EXTT30=
EXTT31=
EXTT32=
EXTT33=
PLAYORDER=
